<svg xmlns="http://www.w3.org/2000/svg" baseProfile="tiny" width="1024" height="1024" overflow="inherit" fill="#00999a" xmlns:v="https://vecta.io/nano"><path d="M326.853 368.7l5.6 29.05L188.6 456.9 173.9 424c24.5-8.05 59.15-20.3 95.9-33.95V257.738h-84.7v-32.55h84.7v-79.102h33.6V377.44l23.45-8.75zm115.152 47.95c14.35 0 16.45-16.45 18.55-81.202 8.05 6.65 22.4 13.3 31.15 15.4-3.15 72.102-10.85 97.65-46.9 97.65h-44.45c-33.95 0-43.75-11.9-43.75-53.2V146.085h33.95v78.752h94.15v32.2h-94.15V395.64c0 17.85 2.1 21 14.35 21h37.1zm197.397-95.56c-11.2 3.5-22.75 7-33.95 9.8v91.7c0 16.8-3.5 25.2-13.65 29.75-10.15 5.25-25.55 5.95-49.7 5.95-1.05-8.05-5.6-21.35-9.45-29.4l34.3.35c4.9-.35 7-1.75 7-7V340l-40.6 11.2-8.75-31.15c14-3.15 30.8-7.35 49.352-12.25v-69.3H529.15v-30.1h44.8v-68.25h31.5v68.25h40.602v30.1H605.45v60.9l29.75-8.05 4.2 29.75zm185.503-21.7c-13.3 42.7-36.05 75.252-64.4 100.802 24.852 14.35 54.252 25.2 87.152 31.5-7 7-15.75 21-20.65 30.1-36.05-8.75-67.552-22.4-94.152-40.95-29.4 18.9-63 31.85-98.7 40.95-2.8-9.1-10.15-22.75-16.1-29.75 31.85-6.3 62.302-16.8 88.552-32.2-22.4-21-39.9-45.85-53.55-74.552l8.75-3.15h-17.5V291.7H798.31l5.6-1.05 21 8.75zM706.953 190.886c0 32.55-9.8 70.702-54.6 94.152-3.85-6.3-15.4-19.25-21-23.8 39.55-19.95 45.15-46.9 45.15-71.4v-37.8h115.15v78.4c0 9.8.7 13.65 6.3 13.65h23.45c5.25 0 13.3-.7 18.2-2.1.35 8.4 1.4 19.95 2.45 27.3-4.9 1.75-12.6 2.1-20.3 2.1h-26.25c-28.35 0-34.65-11.55-34.65-41.3v-47.95h-53.9v8.75zm-22.4 131.253c11.9 22.75 28.35 42.7 49 59.15 19.6-16.1 36.05-35.7 48.3-59.15H684.55zm-263.55 407.4c-9.1 28.7-21 52.15-37.1 71.75 39.55 16.8 76.3 35.002 101.852 51.102l-24.5 28.7c-24.5-16.8-61.6-36.4-102.902-54.602-35.7 28.7-84.702 45.15-150.503 55.3-3.15-8.4-13.3-24.15-20.3-32.55 57.75-6.65 101.502-18.2 133.703-38.85-31.85-12.95-64.4-24.5-93.802-33.95 9.45-13.3 20.3-29.4 30.45-46.9H185.8v-30.8h89.602c10.5-19.6 19.6-39.9 26.25-58.102l37.1 7c-6.3 16.45-14.35 33.95-23.1 51.102h74.55c2.1-10.15 3.85-21.7 5.25-33.25l39.55 3.148c-1.75 10.502-3.5 20.65-5.6 30.102h59.85v30.8H421zm-194.253-57.4h-32.9v-73.502h127.052l-14.7-32.9 35.7-8.75c6.65 12.95 15.05 29.4 20.3 41.65h118.652v73.502h-34.65V629.1H226.75v43.05zm72.102 57.4c-6.65 11.55-12.95 22.4-19.25 32.2 22.75 7.7 46.55 16.1 69.65 25.2 14.7-15.4 25.2-34.3 32.9-57.4h-83.3zm512.752-23.802c-15.05 12.25-32.2 24.5-49.352 36.4 15.05 43.752 45.852 81.2 87.502 98.002-7 5.6-16.8 18.2-21.35 26.25-43.05-19.95-73.5-59.15-91.7-107.8l-14 8.4c11.2 43.4 2.8 85.05-16.1 99.75-11.2 10.852-21.35 14.002-37.8 14.002-8.05.35-18.55 0-29.05-.7-.7-8.75-3.5-21.35-8.75-30.45 12.25 1.05 23.45 1.75 31.15 1.75 8.75 0 15.05-1.05 21-7.7 8.4-7 13.65-25.9 12.25-49.7-39.9 29.4-97.302 57.05-145.603 71.402-3.5-8.05-10.85-19.95-17.15-26.95 55.3-12.95 122.502-44.102 157.152-74.55-2.1-6.65-4.2-12.95-7.35-19.602-34.65 22.752-87.152 46.2-127.752 59.152-3.85-7.352-10.5-18.55-16.45-25.55 43.05-9.8 100.803-33.602 131.253-54.95-3.85-5.6-8.4-11.2-13.65-16.8-30.8 16.8-65.802 30.102-98.702 39.2-3.15-6.3-11.55-19.6-17.15-25.9 41.65-9.1 86.452-24.5 118.652-44.8H587.6v-28h198.104v28h-82.95c-7 6.3-14.7 11.55-22.75 17.15 15.05 14.35 25.9 31.15 33.6 48.65 25.2-16.8 53.2-38.5 71.4-56l26.602 21.352zm-239.054-41.65h-31.5v-74.55h128.102c-3.15-8.05-7-15.752-10.85-22.752l33.95-9.8c6.3 9.8 12.25 22.4 16.45 32.55h126.353v74.55h-33.25v-45.15H572.55v45.15z"/></svg>